# xmcd CD database file
#
# Track frame offsets:
#	182
#	16500
#	30687
#	43057
#	59847
#	75470
#	88687
#	103477
#	119407
#	128610
#	143212
#	156812
#	165265
#	176960
#
# Disc length: 2543 seconds
#
# Revision: 1
# Processed by: cddbd v1.5.2PL0 Copyright (c) Steve Scherf et al.
# Submitted via: CDex 1.70beta2
#
DISCID=b709ed0e
DTITLE=AA.VV. - 29 - Allegria in musica
DYEAR=1900
DGENRE=Pop
TTITLE0=D. Modugno - Nel blu dipinto di blu
TTITLE1=C. Villa - Canto a voce piena
TTITLE2=T. Schipa - Vivere
TTITLE3=Mina - Le mille bolle blu
TTITLE4=G. Vanorio - Ndringhete ndrà
TTITLE5=G. Meccia - Patatina
TTITLE6=S. Fioresi - Trio Lescano - Pippo non lo sa
TTITLE7=N. Taranto - Agata
TTITLE8=A. Celentano - Il tuo bacio è come un rock
TTITLE9=C. Villa - Serenata delle serenate
TTITLE10=N. Otto - Ho un sassolino nella scarpa
TTITLE11=I due corsari - Una fetta di limone
TTITLE12=E. Bonino - Il giovanotto matto
TTITLE13=E. Bonino - A zonzo
EXTD=
EXTT0=
EXTT1=
EXTT2=
EXTT3=
EXTT4=
EXTT5=
EXTT6=
EXTT7=
EXTT8=
EXTT9=
EXTT10=
EXTT11=
EXTT12=
EXTT13=
PLAYORDER=
